<mxfile host="app.diagrams.net" modified="2024-04-11T11:46:26.438Z" agent="Mozilla/5.0 (Windows NT 10.0; Win64; x64) AppleWebKit/537.36 (KHTML, like Gecko) Chrome/121.0.0.0 Safari/537.36 Edg/121.0.0.0" etag="a2DvDuur0bclpYC2h5aC" version="24.2.3" type="google">
  <diagram name="PÃ¡gina-1" id="FytL8jTZshEAE2MuBwFe">
    <mxGraphModel grid="1" page="1" gridSize="10" guides="1" tooltips="1" connect="1" arrows="1" fold="1" pageScale="1" pageWidth="827" pageHeight="1169" math="0" shadow="0">
      <root>
        <mxCell id="0" />
        <mxCell id="1" parent="0" />
        <mxCell id="OXCXLse137_cH-5ce6He-1" value="user" style="rounded=0;whiteSpace=wrap;html=1;fillColor=#dae8fc;strokeColor=#6c8ebf;" vertex="1" parent="1">
          <mxGeometry x="60" y="240" width="120" height="60" as="geometry" />
        </mxCell>
        <mxCell id="OXCXLse137_cH-5ce6He-4" value="name" style="ellipse;whiteSpace=wrap;html=1;fillColor=#dae8fc;strokeColor=#6c8ebf;" vertex="1" parent="1">
          <mxGeometry x="-60" y="160" width="96" height="40" as="geometry" />
        </mxCell>
        <mxCell id="OXCXLse137_cH-5ce6He-5" value="&lt;div&gt;surname1&lt;/div&gt;" style="ellipse;whiteSpace=wrap;html=1;fillColor=#dae8fc;strokeColor=#6c8ebf;" vertex="1" parent="1">
          <mxGeometry x="72" y="120" width="96" height="40" as="geometry" />
        </mxCell>
        <mxCell id="OXCXLse137_cH-5ce6He-6" value="&lt;div&gt;surname2&lt;/div&gt;" style="ellipse;whiteSpace=wrap;html=1;fillColor=#dae8fc;strokeColor=#6c8ebf;" vertex="1" parent="1">
          <mxGeometry x="-90" y="250" width="96" height="40" as="geometry" />
        </mxCell>
        <mxCell id="OXCXLse137_cH-5ce6He-7" value="is_admin" style="ellipse;whiteSpace=wrap;html=1;fillColor=#dae8fc;strokeColor=#6c8ebf;" vertex="1" parent="1">
          <mxGeometry x="124" y="350" width="96" height="40" as="geometry" />
        </mxCell>
        <mxCell id="OXCXLse137_cH-5ce6He-8" value="&lt;div&gt;email&lt;/div&gt;" style="ellipse;whiteSpace=wrap;html=1;fillColor=#dae8fc;strokeColor=#6c8ebf;" vertex="1" parent="1">
          <mxGeometry x="203" y="170" width="96" height="40" as="geometry" />
        </mxCell>
        <mxCell id="OXCXLse137_cH-5ce6He-14" value="" style="endArrow=none;html=1;rounded=0;exitX=1;exitY=0.5;exitDx=0;exitDy=0;entryX=0;entryY=0.5;entryDx=0;entryDy=0;" edge="1" parent="1" source="OXCXLse137_cH-5ce6He-1" target="OXCXLse137_cH-5ce6He-15">
          <mxGeometry width="50" height="50" relative="1" as="geometry">
            <mxPoint x="370" y="330" as="sourcePoint" />
            <mxPoint x="370" y="270" as="targetPoint" />
          </mxGeometry>
        </mxCell>
        <mxCell id="OXCXLse137_cH-5ce6He-15" value="has" style="rhombus;whiteSpace=wrap;html=1;" vertex="1" parent="1">
          <mxGeometry x="350" y="230" width="80" height="80" as="geometry" />
        </mxCell>
        <mxCell id="OXCXLse137_cH-5ce6He-16" value="order" style="rounded=0;whiteSpace=wrap;html=1;fillColor=#fff2cc;strokeColor=#d6b656;" vertex="1" parent="1">
          <mxGeometry x="650" y="240" width="120" height="60" as="geometry" />
        </mxCell>
        <mxCell id="OXCXLse137_cH-5ce6He-17" value="" style="endArrow=none;html=1;rounded=0;entryX=0;entryY=0.5;entryDx=0;entryDy=0;exitX=1;exitY=0.5;exitDx=0;exitDy=0;" edge="1" parent="1" source="OXCXLse137_cH-5ce6He-15" target="OXCXLse137_cH-5ce6He-16">
          <mxGeometry width="50" height="50" relative="1" as="geometry">
            <mxPoint x="530" y="410" as="sourcePoint" />
            <mxPoint x="580" y="360" as="targetPoint" />
          </mxGeometry>
        </mxCell>
        <mxCell id="OXCXLse137_cH-5ce6He-19" value="&lt;b&gt;&lt;u&gt;&lt;font style=&quot;font-size: 14px;&quot;&gt;id_order&lt;/font&gt;&lt;/u&gt;&lt;/b&gt;" style="ellipse;whiteSpace=wrap;html=1;fillColor=#fff2cc;strokeColor=#d6b656;" vertex="1" parent="1">
          <mxGeometry x="500" y="150" width="102" height="50" as="geometry" />
        </mxCell>
        <mxCell id="OXCXLse137_cH-5ce6He-21" value="date_creation" style="ellipse;whiteSpace=wrap;html=1;fillColor=#fff2cc;strokeColor=#d6b656;" vertex="1" parent="1">
          <mxGeometry x="809" y="130" width="96" height="40" as="geometry" />
        </mxCell>
        <mxCell id="OXCXLse137_cH-5ce6He-24" value="date_close" style="ellipse;whiteSpace=wrap;html=1;fillColor=#fff2cc;strokeColor=#d6b656;" vertex="1" parent="1">
          <mxGeometry x="750" y="350" width="96" height="40" as="geometry" />
        </mxCell>
        <mxCell id="OXCXLse137_cH-5ce6He-25" value="total" style="ellipse;whiteSpace=wrap;html=1;fillColor=#fff2cc;strokeColor=#d6b656;" vertex="1" parent="1">
          <mxGeometry x="580" y="340" width="96" height="40" as="geometry" />
        </mxCell>
        <mxCell id="OXCXLse137_cH-5ce6He-28" value="" style="endArrow=none;html=1;rounded=0;exitX=0.5;exitY=1;exitDx=0;exitDy=0;entryX=0.5;entryY=0;entryDx=0;entryDy=0;" edge="1" parent="1" source="OXCXLse137_cH-5ce6He-37" target="OXCXLse137_cH-5ce6He-29">
          <mxGeometry width="50" height="50" relative="1" as="geometry">
            <mxPoint x="770" y="330" as="sourcePoint" />
            <mxPoint x="820" y="280" as="targetPoint" />
          </mxGeometry>
        </mxCell>
        <mxCell id="OXCXLse137_cH-5ce6He-29" value="order_detail" style="rounded=0;whiteSpace=wrap;html=1;fillColor=#f8cecc;strokeColor=#b85450;" vertex="1" parent="1">
          <mxGeometry x="870" y="480" width="120" height="60" as="geometry" />
        </mxCell>
        <mxCell id="OXCXLse137_cH-5ce6He-31" value="price" style="ellipse;whiteSpace=wrap;html=1;fillColor=#f8cecc;strokeColor=#b85450;" vertex="1" parent="1">
          <mxGeometry x="1070" y="490" width="96" height="40" as="geometry" />
        </mxCell>
        <mxCell id="OXCXLse137_cH-5ce6He-32" value="quantity" style="ellipse;whiteSpace=wrap;html=1;fillColor=#f8cecc;strokeColor=#b85450;" vertex="1" parent="1">
          <mxGeometry x="1030" y="390" width="96" height="40" as="geometry" />
        </mxCell>
        <mxCell id="OXCXLse137_cH-5ce6He-35" value="" style="endArrow=none;html=1;rounded=0;entryX=0.827;entryY=1.062;entryDx=0;entryDy=0;exitX=0;exitY=0.5;exitDx=0;exitDy=0;entryPerimeter=0;" edge="1" parent="1" source="OXCXLse137_cH-5ce6He-30" target="OXCXLse137_cH-5ce6He-29">
          <mxGeometry width="50" height="50" relative="1" as="geometry">
            <mxPoint x="922" y="420" as="sourcePoint" />
            <mxPoint x="910" y="370" as="targetPoint" />
          </mxGeometry>
        </mxCell>
        <mxCell id="OXCXLse137_cH-5ce6He-37" value="has" style="rhombus;whiteSpace=wrap;html=1;" vertex="1" parent="1">
          <mxGeometry x="890" y="230" width="80" height="80" as="geometry" />
        </mxCell>
        <mxCell id="OXCXLse137_cH-5ce6He-3" value="&lt;b&gt;&lt;u&gt;&lt;font style=&quot;font-size: 14px;&quot;&gt;id_user&lt;/font&gt;&lt;/u&gt;&lt;/b&gt;" style="ellipse;whiteSpace=wrap;html=1;fillColor=#dae8fc;strokeColor=#6c8ebf;" vertex="1" parent="1">
          <mxGeometry x="-50" y="330" width="110" height="50" as="geometry" />
        </mxCell>
        <mxCell id="OXCXLse137_cH-5ce6He-20" value="status" style="ellipse;whiteSpace=wrap;html=1;fillColor=#fff2cc;strokeColor=#d6b656;" vertex="1" parent="1">
          <mxGeometry x="654" y="110" width="96" height="40" as="geometry" />
        </mxCell>
        <mxCell id="OXCXLse137_cH-5ce6He-30" value="&lt;font style=&quot;font-size: 14px;&quot;&gt;&lt;b&gt;&lt;u&gt;id_order_detail&lt;/u&gt;&lt;/b&gt;&lt;/font&gt;" style="ellipse;whiteSpace=wrap;html=1;fillColor=#f8cecc;strokeColor=#b85450;" vertex="1" parent="1">
          <mxGeometry x="1030" y="580" width="120" height="60" as="geometry" />
        </mxCell>
        <mxCell id="OXCXLse137_cH-5ce6He-43" value="contains" style="rhombus;whiteSpace=wrap;html=1;" vertex="1" parent="1">
          <mxGeometry x="628" y="470" width="80" height="80" as="geometry" />
        </mxCell>
        <mxCell id="OXCXLse137_cH-5ce6He-44" value="" style="endArrow=none;html=1;rounded=0;entryX=0;entryY=0.5;entryDx=0;entryDy=0;exitX=1;exitY=0.5;exitDx=0;exitDy=0;" edge="1" parent="1" target="OXCXLse137_cH-5ce6He-43" source="OXCXLse137_cH-5ce6He-46">
          <mxGeometry width="50" height="50" relative="1" as="geometry">
            <mxPoint x="610" y="650" as="sourcePoint" />
            <mxPoint x="1410" y="470" as="targetPoint" />
          </mxGeometry>
        </mxCell>
        <mxCell id="OXCXLse137_cH-5ce6He-45" value="" style="endArrow=none;html=1;rounded=0;exitX=1;exitY=0.5;exitDx=0;exitDy=0;entryX=0;entryY=0.5;entryDx=0;entryDy=0;" edge="1" parent="1" source="OXCXLse137_cH-5ce6He-43" target="OXCXLse137_cH-5ce6He-29">
          <mxGeometry width="50" height="50" relative="1" as="geometry">
            <mxPoint x="1470" y="360" as="sourcePoint" />
            <mxPoint x="1520" y="310" as="targetPoint" />
          </mxGeometry>
        </mxCell>
        <mxCell id="OXCXLse137_cH-5ce6He-46" value="card" style="rounded=0;whiteSpace=wrap;html=1;fillColor=#d5e8d4;strokeColor=#82b366;" vertex="1" parent="1">
          <mxGeometry x="326" y="480" width="120" height="60" as="geometry" />
        </mxCell>
        <mxCell id="OXCXLse137_cH-5ce6He-47" value="name" style="ellipse;whiteSpace=wrap;html=1;fillColor=#d5e8d4;strokeColor=#82b366;" vertex="1" parent="1">
          <mxGeometry x="200" y="420" width="96" height="40" as="geometry" />
        </mxCell>
        <mxCell id="OXCXLse137_cH-5ce6He-48" value="description" style="ellipse;whiteSpace=wrap;html=1;fillColor=#d5e8d4;strokeColor=#82b366;" vertex="1" parent="1">
          <mxGeometry x="338" y="380" width="96" height="40" as="geometry" />
        </mxCell>
        <mxCell id="OXCXLse137_cH-5ce6He-51" value="&lt;font style=&quot;font-size: 14px;&quot;&gt;&lt;b&gt;id_card&lt;/b&gt;&lt;/font&gt;" style="ellipse;whiteSpace=wrap;html=1;fillColor=#d5e8d4;strokeColor=#82b366;" vertex="1" parent="1">
          <mxGeometry x="160" y="490" width="104" height="50" as="geometry" />
        </mxCell>
        <mxCell id="OXCXLse137_cH-5ce6He-53" value="" style="endArrow=none;html=1;rounded=0;exitX=0.5;exitY=1;exitDx=0;exitDy=0;entryX=1;entryY=0.5;entryDx=0;entryDy=0;" edge="1" parent="1" source="OXCXLse137_cH-5ce6He-46" target="vnvBiwGVnYoOAED48BoX-34">
          <mxGeometry width="50" height="50" relative="1" as="geometry">
            <mxPoint x="2000" y="580" as="sourcePoint" />
            <mxPoint x="386" y="630" as="targetPoint" />
          </mxGeometry>
        </mxCell>
        <mxCell id="OXCXLse137_cH-5ce6He-57" value="monster" style="rounded=0;whiteSpace=wrap;html=1;fillColor=#e1d5e7;strokeColor=#9673a6;" vertex="1" parent="1">
          <mxGeometry x="210" y="750" width="102" height="60" as="geometry" />
        </mxCell>
        <mxCell id="OXCXLse137_cH-5ce6He-58" value="spell" style="rounded=0;whiteSpace=wrap;html=1;fillColor=#ffe6cc;strokeColor=#d79b00;" vertex="1" parent="1">
          <mxGeometry x="457" y="750" width="102" height="60" as="geometry" />
        </mxCell>
        <mxCell id="OXCXLse137_cH-5ce6He-61" value="" style="endArrow=none;html=1;rounded=0;entryX=0.5;entryY=1;entryDx=0;entryDy=0;exitX=0.5;exitY=0;exitDx=0;exitDy=0;" edge="1" parent="1" source="OXCXLse137_cH-5ce6He-80" target="OXCXLse137_cH-5ce6He-58">
          <mxGeometry width="50" height="50" relative="1" as="geometry">
            <mxPoint x="380" y="1050" as="sourcePoint" />
            <mxPoint x="1990" y="480" as="targetPoint" />
          </mxGeometry>
        </mxCell>
        <mxCell id="OXCXLse137_cH-5ce6He-70" value="precio" style="ellipse;whiteSpace=wrap;html=1;fillColor=#d5e8d4;strokeColor=#82b366;" vertex="1" parent="1">
          <mxGeometry x="460" y="420" width="96" height="40" as="geometry" />
        </mxCell>
        <mxCell id="OXCXLse137_cH-5ce6He-72" value="name" style="ellipse;whiteSpace=wrap;html=1;fillColor=#e1d5e7;strokeColor=#9673a6;" vertex="1" parent="1">
          <mxGeometry x="72" y="670" width="96" height="40" as="geometry" />
        </mxCell>
        <mxCell id="OXCXLse137_cH-5ce6He-73" value="attack" style="ellipse;whiteSpace=wrap;html=1;fillColor=#e1d5e7;strokeColor=#9673a6;" vertex="1" parent="1">
          <mxGeometry x="28" y="760" width="96" height="40" as="geometry" />
        </mxCell>
        <mxCell id="OXCXLse137_cH-5ce6He-75" value="main_type" style="ellipse;whiteSpace=wrap;html=1;fillColor=#e1d5e7;strokeColor=#9673a6;" vertex="1" parent="1">
          <mxGeometry x="104" y="860" width="96" height="40" as="geometry" />
        </mxCell>
        <mxCell id="OXCXLse137_cH-5ce6He-76" value="secondary_type" style="ellipse;whiteSpace=wrap;html=1;fillColor=#e1d5e7;strokeColor=#9673a6;" vertex="1" parent="1">
          <mxGeometry x="76.5" y="675" width="87" height="30" as="geometry" />
        </mxCell>
        <mxCell id="OXCXLse137_cH-5ce6He-77" value="life" style="ellipse;whiteSpace=wrap;html=1;fillColor=#e1d5e7;strokeColor=#9673a6;" vertex="1" parent="1">
          <mxGeometry x="258" y="890" width="96" height="40" as="geometry" />
        </mxCell>
        <mxCell id="OXCXLse137_cH-5ce6He-80" value="mana" style="ellipse;whiteSpace=wrap;html=1;fillColor=#ffe6cc;strokeColor=#d79b00;" vertex="1" parent="1">
          <mxGeometry x="460" y="890" width="96" height="40" as="geometry" />
        </mxCell>
        <mxCell id="vnvBiwGVnYoOAED48BoX-3" value="" style="endArrow=none;html=1;rounded=0;entryX=1;entryY=0.5;entryDx=0;entryDy=0;exitX=0;exitY=0.5;exitDx=0;exitDy=0;" edge="1" parent="1" source="OXCXLse137_cH-5ce6He-31" target="OXCXLse137_cH-5ce6He-29">
          <mxGeometry width="50" height="50" relative="1" as="geometry">
            <mxPoint x="970" y="700" as="sourcePoint" />
            <mxPoint x="860" y="570" as="targetPoint" />
          </mxGeometry>
        </mxCell>
        <mxCell id="vnvBiwGVnYoOAED48BoX-4" value="" style="endArrow=none;html=1;rounded=0;entryX=1;entryY=0;entryDx=0;entryDy=0;exitX=0.25;exitY=1.019;exitDx=0;exitDy=0;exitPerimeter=0;" edge="1" parent="1" source="OXCXLse137_cH-5ce6He-32" target="OXCXLse137_cH-5ce6He-29">
          <mxGeometry width="50" height="50" relative="1" as="geometry">
            <mxPoint x="1030" y="540" as="sourcePoint" />
            <mxPoint x="920" y="540" as="targetPoint" />
          </mxGeometry>
        </mxCell>
        <mxCell id="vnvBiwGVnYoOAED48BoX-6" value="" style="endArrow=none;html=1;rounded=0;entryX=1;entryY=0.5;entryDx=0;entryDy=0;exitX=0;exitY=0.5;exitDx=0;exitDy=0;" edge="1" parent="1" source="OXCXLse137_cH-5ce6He-37" target="OXCXLse137_cH-5ce6He-16">
          <mxGeometry width="50" height="50" relative="1" as="geometry">
            <mxPoint x="690" y="430" as="sourcePoint" />
            <mxPoint x="740" y="380" as="targetPoint" />
          </mxGeometry>
        </mxCell>
        <mxCell id="vnvBiwGVnYoOAED48BoX-10" value="" style="endArrow=none;html=1;rounded=0;exitX=0.173;exitY=0.013;exitDx=0;exitDy=0;exitPerimeter=0;" edge="1" parent="1" source="OXCXLse137_cH-5ce6He-1" target="OXCXLse137_cH-5ce6He-4">
          <mxGeometry width="50" height="50" relative="1" as="geometry">
            <mxPoint x="72" y="245" as="sourcePoint" />
            <mxPoint x="122" y="195" as="targetPoint" />
          </mxGeometry>
        </mxCell>
        <mxCell id="vnvBiwGVnYoOAED48BoX-11" value="" style="endArrow=none;html=1;rounded=0;exitX=1;exitY=0.5;exitDx=0;exitDy=0;" edge="1" parent="1" source="OXCXLse137_cH-5ce6He-6">
          <mxGeometry width="50" height="50" relative="1" as="geometry">
            <mxPoint x="550" y="350" as="sourcePoint" />
            <mxPoint x="60" y="270" as="targetPoint" />
          </mxGeometry>
        </mxCell>
        <mxCell id="vnvBiwGVnYoOAED48BoX-13" value="" style="endArrow=none;html=1;rounded=0;entryX=0.5;entryY=1;entryDx=0;entryDy=0;exitX=0.5;exitY=0;exitDx=0;exitDy=0;" edge="1" parent="1" source="OXCXLse137_cH-5ce6He-1" target="OXCXLse137_cH-5ce6He-5">
          <mxGeometry width="50" height="50" relative="1" as="geometry">
            <mxPoint x="100" y="230" as="sourcePoint" />
            <mxPoint x="150" y="180" as="targetPoint" />
          </mxGeometry>
        </mxCell>
        <mxCell id="vnvBiwGVnYoOAED48BoX-14" value="" style="endArrow=none;html=1;rounded=0;entryX=0;entryY=1;entryDx=0;entryDy=0;exitX=0.75;exitY=0;exitDx=0;exitDy=0;" edge="1" parent="1" source="OXCXLse137_cH-5ce6He-1" target="OXCXLse137_cH-5ce6He-8">
          <mxGeometry width="50" height="50" relative="1" as="geometry">
            <mxPoint x="550" y="350" as="sourcePoint" />
            <mxPoint x="600" y="300" as="targetPoint" />
          </mxGeometry>
        </mxCell>
        <mxCell id="vnvBiwGVnYoOAED48BoX-15" value="" style="endArrow=none;html=1;rounded=0;exitX=1;exitY=0;exitDx=0;exitDy=0;entryX=0.25;entryY=1;entryDx=0;entryDy=0;" edge="1" parent="1" source="OXCXLse137_cH-5ce6He-3" target="OXCXLse137_cH-5ce6He-1">
          <mxGeometry width="50" height="50" relative="1" as="geometry">
            <mxPoint x="550" y="350" as="sourcePoint" />
            <mxPoint x="600" y="300" as="targetPoint" />
          </mxGeometry>
        </mxCell>
        <mxCell id="vnvBiwGVnYoOAED48BoX-16" value="" style="endArrow=none;html=1;rounded=0;entryX=0.75;entryY=1;entryDx=0;entryDy=0;exitX=0.5;exitY=0;exitDx=0;exitDy=0;" edge="1" parent="1" source="OXCXLse137_cH-5ce6He-7" target="OXCXLse137_cH-5ce6He-1">
          <mxGeometry width="50" height="50" relative="1" as="geometry">
            <mxPoint x="550" y="350" as="sourcePoint" />
            <mxPoint x="600" y="300" as="targetPoint" />
          </mxGeometry>
        </mxCell>
        <mxCell id="vnvBiwGVnYoOAED48BoX-18" value="" style="endArrow=none;html=1;rounded=0;entryX=0.727;entryY=1.05;entryDx=0;entryDy=0;entryPerimeter=0;exitX=0;exitY=0.25;exitDx=0;exitDy=0;" edge="1" parent="1" source="OXCXLse137_cH-5ce6He-16" target="OXCXLse137_cH-5ce6He-19">
          <mxGeometry width="50" height="50" relative="1" as="geometry">
            <mxPoint x="550" y="450" as="sourcePoint" />
            <mxPoint x="600" y="400" as="targetPoint" />
          </mxGeometry>
        </mxCell>
        <mxCell id="vnvBiwGVnYoOAED48BoX-19" value="" style="endArrow=none;html=1;rounded=0;entryX=0.583;entryY=1;entryDx=0;entryDy=0;entryPerimeter=0;" edge="1" parent="1" source="OXCXLse137_cH-5ce6He-16" target="OXCXLse137_cH-5ce6He-20">
          <mxGeometry width="50" height="50" relative="1" as="geometry">
            <mxPoint x="550" y="450" as="sourcePoint" />
            <mxPoint x="600" y="400" as="targetPoint" />
          </mxGeometry>
        </mxCell>
        <mxCell id="vnvBiwGVnYoOAED48BoX-20" value="" style="endArrow=none;html=1;rounded=0;entryX=0.5;entryY=1;entryDx=0;entryDy=0;" edge="1" parent="1" source="OXCXLse137_cH-5ce6He-16" target="OXCXLse137_cH-5ce6He-21">
          <mxGeometry width="50" height="50" relative="1" as="geometry">
            <mxPoint x="550" y="450" as="sourcePoint" />
            <mxPoint x="600" y="400" as="targetPoint" />
          </mxGeometry>
        </mxCell>
        <mxCell id="vnvBiwGVnYoOAED48BoX-22" value="" style="endArrow=none;html=1;rounded=0;entryX=0.278;entryY=0.037;entryDx=0;entryDy=0;exitX=0.75;exitY=1;exitDx=0;exitDy=0;entryPerimeter=0;" edge="1" parent="1" source="OXCXLse137_cH-5ce6He-16" target="OXCXLse137_cH-5ce6He-24">
          <mxGeometry width="50" height="50" relative="1" as="geometry">
            <mxPoint x="780" y="240" as="sourcePoint" />
            <mxPoint x="590" y="400" as="targetPoint" />
          </mxGeometry>
        </mxCell>
        <mxCell id="vnvBiwGVnYoOAED48BoX-24" value="" style="endArrow=none;html=1;rounded=0;entryX=1;entryY=0.5;entryDx=0;entryDy=0;exitX=0;exitY=0.75;exitDx=0;exitDy=0;" edge="1" parent="1" source="OXCXLse137_cH-5ce6He-46" target="OXCXLse137_cH-5ce6He-51">
          <mxGeometry width="50" height="50" relative="1" as="geometry">
            <mxPoint x="540" y="570" as="sourcePoint" />
            <mxPoint x="590" y="520" as="targetPoint" />
          </mxGeometry>
        </mxCell>
        <mxCell id="vnvBiwGVnYoOAED48BoX-25" value="" style="endArrow=none;html=1;rounded=0;entryX=0.749;entryY=1.057;entryDx=0;entryDy=0;entryPerimeter=0;" edge="1" parent="1" source="OXCXLse137_cH-5ce6He-46" target="OXCXLse137_cH-5ce6He-47">
          <mxGeometry width="50" height="50" relative="1" as="geometry">
            <mxPoint x="540" y="570" as="sourcePoint" />
            <mxPoint x="590" y="520" as="targetPoint" />
          </mxGeometry>
        </mxCell>
        <mxCell id="vnvBiwGVnYoOAED48BoX-26" value="" style="endArrow=none;html=1;rounded=0;entryX=0.5;entryY=1;entryDx=0;entryDy=0;exitX=0.5;exitY=0;exitDx=0;exitDy=0;" edge="1" parent="1" source="OXCXLse137_cH-5ce6He-46" target="OXCXLse137_cH-5ce6He-48">
          <mxGeometry width="50" height="50" relative="1" as="geometry">
            <mxPoint x="540" y="570" as="sourcePoint" />
            <mxPoint x="590" y="520" as="targetPoint" />
          </mxGeometry>
        </mxCell>
        <mxCell id="vnvBiwGVnYoOAED48BoX-27" value="" style="endArrow=none;html=1;rounded=0;entryX=0.283;entryY=0.933;entryDx=0;entryDy=0;entryPerimeter=0;exitX=1;exitY=0;exitDx=0;exitDy=0;" edge="1" parent="1" source="OXCXLse137_cH-5ce6He-46" target="OXCXLse137_cH-5ce6He-70">
          <mxGeometry width="50" height="50" relative="1" as="geometry">
            <mxPoint x="540" y="570" as="sourcePoint" />
            <mxPoint x="590" y="520" as="targetPoint" />
          </mxGeometry>
        </mxCell>
        <mxCell id="vnvBiwGVnYoOAED48BoX-28" style="edgeStyle=orthogonalEdgeStyle;rounded=0;orthogonalLoop=1;jettySize=auto;html=1;exitX=0.5;exitY=1;exitDx=0;exitDy=0;" edge="1" parent="1" source="OXCXLse137_cH-5ce6He-76" target="OXCXLse137_cH-5ce6He-76">
          <mxGeometry relative="1" as="geometry" />
        </mxCell>
        <mxCell id="vnvBiwGVnYoOAED48BoX-29" value="" style="endArrow=none;html=1;rounded=0;entryX=0.674;entryY=1.062;entryDx=0;entryDy=0;entryPerimeter=0;exitX=0.5;exitY=0;exitDx=0;exitDy=0;" edge="1" parent="1" source="OXCXLse137_cH-5ce6He-77" target="OXCXLse137_cH-5ce6He-57">
          <mxGeometry width="50" height="50" relative="1" as="geometry">
            <mxPoint x="300" y="850" as="sourcePoint" />
            <mxPoint x="350" y="800" as="targetPoint" />
          </mxGeometry>
        </mxCell>
        <mxCell id="vnvBiwGVnYoOAED48BoX-30" value="" style="endArrow=none;html=1;rounded=0;entryX=0.25;entryY=1;entryDx=0;entryDy=0;exitX=0.5;exitY=0;exitDx=0;exitDy=0;" edge="1" parent="1" source="OXCXLse137_cH-5ce6He-75" target="OXCXLse137_cH-5ce6He-57">
          <mxGeometry width="50" height="50" relative="1" as="geometry">
            <mxPoint x="540" y="820" as="sourcePoint" />
            <mxPoint x="590" y="770" as="targetPoint" />
          </mxGeometry>
        </mxCell>
        <mxCell id="vnvBiwGVnYoOAED48BoX-31" value="" style="endArrow=none;html=1;rounded=0;exitX=1;exitY=0.5;exitDx=0;exitDy=0;" edge="1" parent="1" source="OXCXLse137_cH-5ce6He-73" target="OXCXLse137_cH-5ce6He-57">
          <mxGeometry width="50" height="50" relative="1" as="geometry">
            <mxPoint x="540" y="820" as="sourcePoint" />
            <mxPoint x="590" y="770" as="targetPoint" />
          </mxGeometry>
        </mxCell>
        <mxCell id="vnvBiwGVnYoOAED48BoX-34" value="" style="triangle;whiteSpace=wrap;html=1;rotation=-90;" vertex="1" parent="1">
          <mxGeometry x="356" y="590" width="60" height="80" as="geometry" />
        </mxCell>
        <mxCell id="vnvBiwGVnYoOAED48BoX-35" value="" style="endArrow=none;html=1;rounded=0;exitX=0.5;exitY=0;exitDx=0;exitDy=0;entryX=-0.018;entryY=0.031;entryDx=0;entryDy=0;entryPerimeter=0;" edge="1" parent="1" source="OXCXLse137_cH-5ce6He-57" target="vnvBiwGVnYoOAED48BoX-34">
          <mxGeometry width="50" height="50" relative="1" as="geometry">
            <mxPoint x="540" y="700" as="sourcePoint" />
            <mxPoint x="590" y="650" as="targetPoint" />
          </mxGeometry>
        </mxCell>
        <mxCell id="vnvBiwGVnYoOAED48BoX-36" value="" style="endArrow=none;html=1;rounded=0;entryX=0.018;entryY=0.991;entryDx=0;entryDy=0;entryPerimeter=0;exitX=0.5;exitY=0;exitDx=0;exitDy=0;" edge="1" parent="1" source="OXCXLse137_cH-5ce6He-58" target="vnvBiwGVnYoOAED48BoX-34">
          <mxGeometry width="50" height="50" relative="1" as="geometry">
            <mxPoint x="540" y="700" as="sourcePoint" />
            <mxPoint x="590" y="650" as="targetPoint" />
          </mxGeometry>
        </mxCell>
        <mxCell id="vnvBiwGVnYoOAED48BoX-37" value="&lt;font style=&quot;font-size: 24px;&quot;&gt;1.1&lt;/font&gt;" style="text;html=1;align=center;verticalAlign=middle;whiteSpace=wrap;rounded=0;" vertex="1" parent="1">
          <mxGeometry x="296" y="220" width="76" height="40" as="geometry" />
        </mxCell>
        <mxCell id="vnvBiwGVnYoOAED48BoX-38" value="&lt;font style=&quot;font-size: 24px;&quot;&gt;0.n&lt;/font&gt;" style="text;html=1;align=center;verticalAlign=middle;whiteSpace=wrap;rounded=0;" vertex="1" parent="1">
          <mxGeometry x="414" y="220" width="76" height="40" as="geometry" />
        </mxCell>
        <mxCell id="vnvBiwGVnYoOAED48BoX-39" value="&lt;font style=&quot;font-size: 24px;&quot;&gt;0.n&lt;/font&gt;" style="text;html=1;align=center;verticalAlign=middle;whiteSpace=wrap;rounded=0;" vertex="1" parent="1">
          <mxGeometry x="840" y="220" width="76" height="40" as="geometry" />
        </mxCell>
        <mxCell id="vnvBiwGVnYoOAED48BoX-41" value="" style="endArrow=none;html=1;rounded=0;entryX=0.5;entryY=0;entryDx=0;entryDy=0;exitX=0.25;exitY=1;exitDx=0;exitDy=0;" edge="1" parent="1" source="OXCXLse137_cH-5ce6He-16" target="OXCXLse137_cH-5ce6He-25">
          <mxGeometry width="50" height="50" relative="1" as="geometry">
            <mxPoint x="660" y="265" as="sourcePoint" />
            <mxPoint x="590" y="222" as="targetPoint" />
          </mxGeometry>
        </mxCell>
        <mxCell id="vnvBiwGVnYoOAED48BoX-43" value="&lt;font style=&quot;font-size: 24px;&quot;&gt;1.n&lt;/font&gt;" style="text;html=1;align=center;verticalAlign=middle;whiteSpace=wrap;rounded=0;" vertex="1" parent="1">
          <mxGeometry x="940" y="290" width="76" height="40" as="geometry" />
        </mxCell>
        <mxCell id="vnvBiwGVnYoOAED48BoX-44" value="&lt;font style=&quot;font-size: 24px;&quot;&gt;1.n&lt;/font&gt;" style="text;html=1;align=center;verticalAlign=middle;whiteSpace=wrap;rounded=0;" vertex="1" parent="1">
          <mxGeometry x="574" y="450" width="76" height="40" as="geometry" />
        </mxCell>
        <mxCell id="vnvBiwGVnYoOAED48BoX-45" value="&lt;font style=&quot;font-size: 24px;&quot;&gt;0.n&lt;/font&gt;" style="text;html=1;align=center;verticalAlign=middle;whiteSpace=wrap;rounded=0;" vertex="1" parent="1">
          <mxGeometry x="694" y="450" width="76" height="40" as="geometry" />
        </mxCell>
        <mxCell id="vnvBiwGVnYoOAED48BoX-46" value="&lt;font style=&quot;font-size: 18px;&quot;&gt;ES&lt;/font&gt;" style="text;html=1;align=center;verticalAlign=middle;whiteSpace=wrap;rounded=0;" vertex="1" parent="1">
          <mxGeometry x="356" y="614" width="60" height="30" as="geometry" />
        </mxCell>
        <mxCell id="vnvBiwGVnYoOAED48BoX-47" value="&lt;font style=&quot;font-size: 18px;&quot;&gt;d&lt;/font&gt;" style="text;html=1;align=center;verticalAlign=middle;whiteSpace=wrap;rounded=0;" vertex="1" parent="1">
          <mxGeometry x="356" y="633" width="60" height="30" as="geometry" />
        </mxCell>
        <mxCell id="vnvBiwGVnYoOAED48BoX-48" value="" style="endArrow=none;dashed=1;html=1;dashPattern=1 3;strokeWidth=2;rounded=0;entryX=1;entryY=1;entryDx=0;entryDy=0;exitX=0;exitY=0;exitDx=0;exitDy=0;" edge="1" parent="1" source="OXCXLse137_cH-5ce6He-57" target="OXCXLse137_cH-5ce6He-72">
          <mxGeometry width="50" height="50" relative="1" as="geometry">
            <mxPoint x="590" y="830" as="sourcePoint" />
            <mxPoint x="640" y="780" as="targetPoint" />
          </mxGeometry>
        </mxCell>
      </root>
    </mxGraphModel>
  </diagram>
</mxfile>
